<?xml version="1.0" standalone="no"?>
<!DOCTYPE svg PUBLIC "-//W3C//DTD SVG 20010904//EN"
 "http://www.w3.org/TR/2001/REC-SVG-20010904/DTD/svg10.dtd">
<svg version="1.0" xmlns="http://www.w3.org/2000/svg"
 width="446.000000pt" height="100.000000pt" viewBox="0 0 446.000000 100.000000"
 preserveAspectRatio="xMidYMid meet">

<g transform="translate(0.000000,100.000000) scale(0.100000,-0.100000)"
fill="#000000" stroke="none">
<path d="M90 500 l0 -230 268 2 c214 2 232 3 90 5 -170 3 -178 4 -178 23 0 18
-7 20 -65 20 l-65 0 0 180 0 180 65 0 c58 0 65 2 65 20 0 19 8 20 178 23 142
2 124 3 -90 5 l-268 2 0 -230z"/>
<path d="M328 693 c6 -2 18 -2 25 0 6 3 1 5 -13 5 -14 0 -19 -2 -12 -5z"/>
<path d="M398 693 l-28 -4 0 -189 0 -189 53 -6 c28 -4 75 -5 102 -3 39 4 32 5
-27 6 l-78 2 0 190 0 189 78 4 77 3 -75 0 c-41 1 -87 -1 -102 -3z"/>
<path d="M725 656 c-39 -17 -55 -37 -61 -78 -12 -77 68 -133 151 -106 37 12
40 16 43 56 3 41 2 42 -27 42 -27 0 -31 -4 -31 -26 0 -22 -4 -25 -26 -22 -34
4 -49 27 -40 61 7 28 29 37 64 25 14 -5 30 -3 42 5 25 15 25 19 1 34 -31 19
-84 24 -116 9z"/>
<path d="M880 605 c0 -76 20 -119 60 -134 39 -13 77 -5 108 22 19 18 22 30 22
94 l0 73 -30 0 c-29 0 -29 0 -32 -67 -3 -65 -4 -68 -28 -68 -24 0 -25 3 -28
68 l-3 67 -34 0 -35 0 0 -55z"/>
<path d="M1100 565 l0 -95 35 0 35 0 0 95 0 95 -35 0 -35 0 0 -95z"/>
<path d="M1200 565 l0 -95 65 0 c107 0 155 40 140 117 -9 51 -49 73 -134 73
l-71 0 0 -95z m128 33 c29 -29 7 -78 -35 -78 -21 0 -23 5 -23 45 0 40 2 45 23
45 13 0 28 -5 35 -12z"/>
<path d="M1430 565 l0 -95 80 0 c79 0 80 0 80 25 0 23 -4 25 -45 25 -25 0 -45
5 -45 10 0 6 18 10 40 10 36 0 40 3 40 25 0 23 -4 25 -40 25 -22 0 -40 5 -40
10 0 6 20 10 45 10 41 0 45 2 45 25 0 25 -1 25 -80 25 l-80 0 0 -95z"/>
<path d="M655 410 c8 -14 942 -13 950 0 4 6 -171 10 -475 10 -322 0 -479 -3
-475 -10z"/>
<path d="M1181 338 c-1 -23 3 -28 22 -27 15 1 17 3 5 6 -9 2 -19 14 -21 26 -4
18 -5 17 -6 -5z"/>
<path d="M1392 335 c0 -16 2 -22 5 -12 2 9 2 23 0 30 -3 6 -5 -1 -5 -18z"/>
<path d="M1445 340 c10 -11 20 -20 23 -20 3 0 -3 9 -13 20 -10 11 -20 20 -23
20 -3 0 3 -9 13 -20z"/>
<path d="M687 324 c6 -15 23 -19 23 -5 0 5 -7 11 -14 14 -10 4 -13 1 -9 -9z"/>
<path d="M800 320 c-23 -7 -23 -8 -3 -9 12 -1 25 4 28 9 3 6 5 10 3 9 -2 -1
-14 -5 -28 -9z"/>
<path d="M927 318 c2 -5 10 -8 18 -8 8 0 16 3 18 8 3 4 -5 7 -18 7 -13 0 -21
-3 -18 -7z"/>
<path d="M1020 319 c0 -5 9 -9 20 -9 11 0 20 2 20 4 0 2 -9 6 -20 9 -11 3 -20
1 -20 -4z"/>
<path d="M1250 316 c7 -7 13 -7 20 0 6 6 3 10 -10 10 -13 0 -16 -4 -10 -10z"/>
<path d="M1537 318 c2 -5 10 -8 18 -8 8 0 16 3 18 8 3 4 -5 7 -18 7 -13 0 -21
-3 -18 -7z"/>
<path d="M328 303 c6 -2 18 -2 25 0 6 3 1 5 -13 5 -14 0 -19 -2 -12 -5z"/>
</g>
</svg>
